# xmcd
#
# Track frame offsets: 
#        150
#        40693
#        46369
#        73262
#        96015
#        99921
#        168207
#        172068
#        209612
#        244071
#        247352
#
# Disc length: 3835 seconds
#
# Revision: 13
# Processed by: cddbd v1.5.2PL0 Copyright (c) Steve Scherf et al.
# Submitted via: ExactAudioCopyFreeDBPlugin 1.0
#
DISCID=9b0ef90b
DTITLE=Albert King With Stevie Ray Vaughan - In Session
DYEAR=2009
DGENRE=Blues
TTITLE0=Call It Stormy Monday
TTITLE1="Old Times" (discussion)
TTITLE2=Pride and Joy
TTITLE3=Ask Me No Questions
TTITLE4="Pep Talk" (discussion)
TTITLE5=Blues at Sunrise
TTITLE6="Turn It Over" (discussion)
TTITLE7=Overall Junction
TTITLE8=Match Box Blues
TTITLE9="Who Is Stevie?" (discussion)
TTITLE10=Don't Lie to Me
EXTD=
EXTT0=
EXTT1=
EXTT2=
EXTT3=
EXTT4=
EXTT5=
EXTT6=
EXTT7=
EXTT8=
EXTT9=
EXTT10=
PLAYORDER=
